<svg width="289" height="106" viewBox="0 0 289 106" fill="none" xmlns="http://www.w3.org/2000/svg">
<g clip-path="url(#clip0_19_161)">
<path d="M13.2 36.1001H7.70001V34.6001H27.1C35.3 34.6001 39.3 38.5001 39.3 46.3001C39.3 50.1001 38.2 53.0001 36.2 55.0001C34.1 56.9001 31.4 57.9001 28.2 57.9001H19.9V75.1001H25.2V76.6001H7.70001V75.1001H13.2V36.1001ZM19.9 56.1001H24.5C27.7 56.1001 29.8 55.3001 30.8 53.8001C31.7 52.3001 32.2 49.6001 32.2 45.9001C32.2 42.9001 31.7 40.4001 30.6 38.8001C29.5 37.0001 27.6 36.2001 25 36.2001H20V56.1001H19.9Z" fill="#1E1E1E" stroke="#1E1E1E" stroke-miterlimit="10"/>
<path d="M48 36.1001H42.5V34.6001H76.1L76.5 47.5001H75C74.8 46.2001 74.5 45.0001 74.3 44.0001C74.1 43.0001 73.8 42.1001 73.4 41.3001C73 40.5001 72.7 39.8001 72.3 39.3001C71.9 38.7001 71.4 38.2001 70.7 37.8001C70 37.4001 69.3 37.0001 68.6 36.8001C67.9 36.6001 67 36.4001 65.8 36.3001C64.6 36.1001 63.5 36.1001 62.2 36.0001C61 35.9001 59.5 35.9001 57.7 35.9001H54.9V54.1001H58.1C61.3 54.1001 63.3 53.5001 64.1 52.3001C64.9 51.1001 65.3 48.7001 65.3 45.3001H67.1V65.2001H65.3C65.3 63.8001 65.3 62.7001 65.2 62.0001C65.1 61.2001 65.1 60.4001 64.8 59.6001C64.7 58.8001 64.4 58.2001 64.1 57.8001C63.9 57.4001 63.4 57.1001 62.9 56.7001C62.4 56.4001 61.7 56.2001 61 56.1001C60.2 56.0001 59.2 55.9001 58.1 55.9001H54.9V74.9001H63.8C68.1 74.9001 71.1 73.8001 73.1 71.8001C75.1 69.8001 76.3 66.5001 77 62.0001H78.6L78.1 76.4001H42.5V74.9001H48V36.1001Z" fill="#1E1E1E" stroke="#1E1E1E" stroke-miterlimit="10"/>
<path d="M89.3 36.1001H83.8V34.6001H101.3V36.1001H96V75.1001H105.7C109.3 75.1001 112 74.2001 113.8 72.2001C115.7 70.3001 117.1 66.6001 118 61.1001H119.4V76.6001H83.8V75.1001H89.3V36.1001Z" fill="#1E1E1E" stroke="#1E1E1E" stroke-miterlimit="10"/>
<path d="M125.6 47.8C126.3 45.3 127.5 43 129 40.9C130.5 38.8 132.5 37.1 135 35.9C137.5 34.6 140.5 34 143.7 34C146.9 34 149.9 34.6 152.4 35.9C154.9 37.1 157 38.8 158.4 40.9C159.9 43 161.1 45.3 161.8 47.8C162.6 50.3 163 52.9 163 55.6C163 58.3 162.6 60.9 161.8 63.4C161.1 65.9 159.9 68.2 158.4 70.3C156.9 72.4 154.9 74.1 152.4 75.3C149.9 76.5 146.9 77.2 143.7 77.2C140.5 77.2 137.5 76.6 135 75.3C132.5 74 130.4 72.3 129 70.3C127.5 68.2 126.3 65.9 125.6 63.4C124.8 60.9 124.4 58.3 124.4 55.6C124.4 52.9 124.8 50.4 125.6 47.8ZM155.1 49.6C155 47.9 154.7 46.1 154.2 44.3C153.7 42.5 153.1 41 152.3 39.8C151.5 38.7 150.4 37.7 148.9 37C147.4 36.2 145.7 35.8 143.8 35.8C141.9 35.8 140.2 36.2 138.7 37C137.2 37.7 136.1 38.7 135.3 39.8C134.5 41 133.9 42.5 133.4 44.3C132.9 46.1 132.6 47.9 132.5 49.6C132.3 51.3 132.3 53.4 132.3 55.6C132.3 58.5 132.4 61.1 132.7 63.1C133 65.2 133.5 67.2 134.2 69.3C135 71.3 136.1 72.8 137.8 73.9C139.4 75 141.4 75.5 143.8 75.5C146.2 75.5 148.3 75 149.8 73.9C151.4 72.8 152.6 71.3 153.4 69.3C154.2 67.2 154.6 65.2 154.9 63.1C155.2 61 155.3 58.5 155.3 55.6C155.3 53.4 155.3 51.3 155.1 49.6Z" fill="#1E1E1E" stroke="#1E1E1E" stroke-miterlimit="10"/>
<path d="M174.1 36.1001H168.6V34.6001H185.8C190 34.6001 193.1 35.3001 195.3 36.7001C197.5 38.1001 198.5 40.8001 198.5 44.7001C198.5 47.9001 197.6 50.2001 195.9 51.6001C194.1 52.9001 191.7 53.8001 188.5 54.2001V54.3001C190.9 54.6001 192.8 54.9001 194.1 55.2001C195.3 55.6001 196.5 56.1001 197.5 56.9001C198.6 57.7001 199.3 58.8001 199.7 60.2001C200.1 61.5001 200.3 63.4001 200.5 65.8001C200.7 69.3001 201 71.7001 201.6 73.0001C202.1 74.3001 203.2 75.1001 204.9 75.1001H206.4V76.6001H202.1C200.6 76.6001 199.5 76.5001 198.6 76.2001C197.7 75.9001 196.9 75.6001 196.3 75.1001C195.7 74.7001 195.2 73.9001 195 72.9001C194.8 71.9001 194.5 70.9001 194.3 69.9001C194.2 69.0001 194.1 67.5001 193.9 65.6001C193.7 61.6001 193 58.9001 191.8 57.5001C190.7 56.2001 188.3 55.4001 184.7 55.4001H181V75.1001H186.3V76.6001H168.8V75.1001H174.3V36.1001H174.1ZM180.8 53.6001H184.9C189.5 53.6001 191.8 50.7001 191.8 44.8001C191.8 41.9001 191.2 39.8001 189.9 38.3001C188.7 36.8001 186.7 36.1001 183.8 36.1001H180.8V53.6001Z" fill="#1E1E1E" stroke="#1E1E1E" stroke-miterlimit="10"/>
<path d="M211.5 36.1001H206.1V34.6001H224V36.1001H218.2V64.0001C218.2 66.1001 218.3 67.7001 218.6 69.0001C218.9 70.2001 219.4 71.3001 220.2 72.4001C221 73.3001 222.1 74.1001 223.6 74.5001C225.1 74.9001 227 75.1001 229.3 75.1001C232 75.1001 234.2 74.9001 235.9 74.3001C237.6 73.8001 238.8 73.0001 239.6 71.8001C240.4 70.6001 240.9 69.5001 241.2 68.3001C241.4 67.0001 241.6 65.4001 241.6 63.4001V36.1001H235.3V34.6001H248.3V36.1001H243.4V64.1001C243.4 66.3001 243.2 68.1001 242.8 69.6001C242.4 71.0001 241.7 72.3001 240.7 73.5001C239.6 74.7001 238.1 75.6001 235.9 76.1001C233.7 76.6001 231 76.9001 227.6 76.9001C224.1 76.9001 221.3 76.7001 219.1 76.1001C217 75.6001 215.3 74.8001 214.3 73.6001C213.2 72.5001 212.5 71.3001 212.1 69.9001C211.7 68.5001 211.6 66.8001 211.6 64.6001V36.1001H211.5Z" fill="#1E1E1E" stroke="#1E1E1E" stroke-miterlimit="10"/>
<path d="M253 62.7999H254.6C254.8 66.2999 256.1 69.2999 258.3 71.7999C260.6 74.2999 263.4 75.4999 266.7 75.4999C269.3 75.4999 271.6 74.7999 273.5 73.3999C275.4 71.9999 276.4 69.8999 276.4 67.2999C276.4 65.1999 275.6 63.4999 274.1 62.0999C272.5 60.7999 270.6 59.5999 268.4 58.7999C266.2 57.9999 263.9 57.0999 261.7 56.1999C259.5 55.2999 257.6 53.8999 256 52.0999C254.4 50.2999 253.7 48.0999 253.7 45.4999C253.7 41.8999 255 39.0999 257.6 36.9999C260.2 34.8999 263.3 33.8999 266.9 33.8999C270.5 33.8999 274.1 34.6999 277.8 36.3999L278.2 45.5999H276.6C275.2 38.9999 271.8 35.6999 266.3 35.6999C264.1 35.6999 262.2 36.2999 260.6 37.4999C259 38.6999 258.3 40.3999 258.3 42.5999C258.3 44.1999 258.8 45.5999 260 46.7999C261.1 47.9999 262.5 48.8999 264.1 49.4999C265.7 50.0999 267.6 50.7999 269.5 51.5999C271.4 52.3999 273.3 53.2999 274.9 54.1999C276.5 55.0999 277.9 56.3999 279 58.1999C280.2 59.9999 280.7 62.0999 280.7 64.5999C280.7 68.3999 279.2 71.4999 276.3 73.7999C273.3 76.0999 269.9 77.2999 266 77.2999C261.5 77.2999 257.3 76.3999 253.4 74.6999L253 62.7999Z" fill="#1E1E1E" stroke="#1E1E1E" stroke-miterlimit="10"/>
<path d="M162.4 26.4999C162.4 26.4999 162.9 19.2999 167.8 20.4999C166.9 18.5999 164.8 17.5999 162.8 18.0999C162.8 18.0999 158 7.59992 143 4.79992C142.8 3.19992 143.7 1.59992 145.2 0.999918C145.2 0.999918 139.6 0.399918 136.6 5.09992C136.6 5.09992 117.4 13.1999 122.6 24.9999L130.8 20.3999C130.8 20.3999 134.8 23.6999 136.2 21.9999L134.5 18.1999C134.5 18.1999 149.7 8.89992 159.4 20.4999C159.6 20.3999 159.1 24.6999 162.4 26.4999Z" stroke="#1E1E1E" stroke-width="2" stroke-miterlimit="10" stroke-linecap="round"/>
<path d="M120.9 26.1L122.7 25" stroke="#1E1E1E" stroke-width="2" stroke-miterlimit="10" stroke-linecap="round"/>
</g>
<defs>
<clipPath id="clip0_19_161">
<rect width="288.6" height="105.9" fill="white"/>
</clipPath>
</defs>
</svg>
