<svg width="238" height="238" viewBox="0 0 238 238" fill="none" xmlns="http://www.w3.org/2000/svg">
<circle cx="120" cy="118" r="72.5" stroke="white" stroke-width="5"/>
<path d="M136.32 35H101.68L119 5L136.32 35Z" stroke="white" stroke-width="5"/>
<path d="M101.68 203H136.32L119 233L101.68 203Z" stroke="white" stroke-width="5"/>
<path d="M35 101.68V136.32L5 119L35 101.68Z" stroke="white" stroke-width="5"/>
<path d="M203 136.32V101.68L233 119L203 136.32Z" stroke="white" stroke-width="5"/>
<path d="M166.15 190.645L190.644 166.15L199.61 199.61L166.15 190.645Z" stroke="white" stroke-width="5"/>
<path d="M71.8504 47.356L47.3557 71.8506L38.3898 38.3901L71.8504 47.356Z" stroke="white" stroke-width="5"/>
<path d="M190.645 71.8505L166.15 47.3559L199.611 38.39L190.645 71.8505Z" stroke="white" stroke-width="5"/>
<path d="M47.3561 166.15L71.8507 190.644L38.3902 199.61L47.3561 166.15Z" stroke="white" stroke-width="5"/>
</svg>
