<svg id="Layer_1" data-name="Layer 1" xmlns="http://www.w3.org/2000/svg" viewBox="0 0 3000 3000"><defs><style>.cls-1{fill:#fff;}</style></defs><path class="cls-1" d="M544.62,781.71v10.54q-17.93.54-27.14,4a19.73,19.73,0,0,0-12.39,12.65q-3.16,9.23-3.16,28.73V1105.4q0,16.35,2.37,24.25t9.49,10.55q7.11,2.64,21.34,2.63H561a70.65,70.65,0,0,0,33.73-8.43,93.38,93.38,0,0,0,28.46-24q12.66-15.54,21.09-37.17a233.55,233.55,0,0,0,12.64-48H669q-1.59,17.93-1.58,46.39,0,12.13.52,35.32t3.17,48q-26.88-1.05-60.62-1.32t-60.08-.26H516.69q-20.57,0-44.28.26l-48,.53q-24.26.27-45.86.79v-10.55q16.86-1,25.3-4.21t11.33-12.66q2.89-9.48,2.9-28.46V837.59q0-19.5-2.9-28.73a19,19,0,0,0-11.59-12.65q-8.7-3.44-25-4V781.71q13.17.52,35.58,1t47.7.53q23.19,0,45.59-.53T544.62,781.71Z"/><path class="cls-1" d="M783.9,876.6v229.33q0,22.14,7.65,30t26.09,7.91V1155q-10-.53-29.78-1.32t-40.32-.79q-20.56,0-41.64.79T674.27,1155v-11.07q18.45,0,26.09-7.91t7.65-30V939.86q0-23.72-7.12-35.05t-26.62-11.34V882.4Q691.15,884,707,884q22.14,0,41.38-1.84A285.55,285.55,0,0,0,783.9,876.6ZM742.79,746.39q22.14,0,35.05,10.8T790.76,787q0,19-12.92,29.79t-35.05,10.8q-22.12,0-35-10.8T694.83,787q0-19,12.91-29.79T742.79,746.39Z"/><path class="cls-1" d="M926.21,795.94V882.4H988.4v10.54H926.21v213q0,15.81,5.79,22.4t17.4,6.59q9.48,0,19-7.11t16.87-24.52l9,4.75q-8.44,23.71-25.57,39T922,1162.34q-17.4,0-30.57-4.48A55.2,55.2,0,0,1,854,1115.68q-3.69-17.12-3.69-44.55V892.94H806V882.4h44.28V812.81a198.15,198.15,0,0,0,40.85-3.95A127.31,127.31,0,0,0,926.21,795.94Z"/><path class="cls-1" d="M1119.63,875q46.38,0,72.74,27.41t26.35,89.63h-173.4l-1.06-10h108a257,257,0,0,0-3.16-47.71q-3.69-21.87-11.6-35.06t-21.08-13.18q-18.45,0-31.36,23.2t-15.55,77l1.58,3.16q-.53,6.33-.79,13.18t-.26,14.23q0,36.37,10.28,59.05t26.09,32.95q15.81,10.28,32.15,10.28a82.3,82.3,0,0,0,22.93-3.43q11.85-3.42,24-12.65t22.66-26.1l9.49,3.17a137.39,137.39,0,0,1-20,39,109.91,109.91,0,0,1-34.79,31.1q-21.07,12.12-50.6,12.13-35.84,0-63.24-15.29t-43-46.39q-15.56-31.11-15.55-79.08,0-49,16.6-81.72T1053,891.1Q1082.21,875,1119.63,875Z"/><path class="cls-1" d="M1409.52,875q16.86,0,27.41,7.12a43.15,43.15,0,0,1,15.55,18.19,55.77,55.77,0,0,1,5,23.19q0,19.51-11.33,31.9t-29.78,12.39q-18.45,0-28.72-9.23t-10.28-24.51q0-14.76,6.59-24.52a62.3,62.3,0,0,1,16.6-16.61,23.69,23.69,0,0,0-14.76.53,43.19,43.19,0,0,0-19,8.17A61.92,61.92,0,0,0,1351.54,918a89.35,89.35,0,0,0-10,21.08,70.67,70.67,0,0,0-3.69,21.88v139.71q0,25.3,12.38,34.26t37.16,9V1155q-12.12-.53-35.31-1.32t-48.49-.79q-21.09,0-42.69.79t-32.68,1.32v-11.07q18.43,0,26.09-7.91t7.64-30V939.86q0-23.72-7.11-35.05t-26.62-11.34V882.4q16.86,1.59,32.68,1.58,22.14,0,41.37-1.84a286,286,0,0,0,35.58-5.54v49a96.08,96.08,0,0,1,16.87-25.83A78.52,78.52,0,0,1,1379,881.61,69.64,69.64,0,0,1,1409.52,875Z"/><path class="cls-1" d="M1526,1158.65q-23.71,0-39.53-9t-23.19-24a73.59,73.59,0,0,1-7.38-33q0-22.66,10.28-36.9a79.35,79.35,0,0,1,26.61-23.2,194.82,194.82,0,0,1,34.53-14.76q18.18-5.8,34.78-11.34T1589,993.37q10.29-7.64,10.28-19.77V932.48a63.67,63.67,0,0,0-4.48-24.51,34.81,34.81,0,0,0-13.7-16.61q-9.22-5.79-24-5.8a79.71,79.71,0,0,0-21.09,2.9,38.47,38.47,0,0,0-17.39,9.76q14.75,5.26,22.93,16.08a39.61,39.61,0,0,1,8.17,24.51q0,17.93-12.39,28.47a43.69,43.69,0,0,1-29.25,10.54q-19,0-28.73-11.86t-9.75-28.73q0-15.29,7.65-25.31t21.34-19q14.75-8.41,35.58-13.17a202.2,202.2,0,0,1,45.06-4.75q24.24,0,43.75,5a69.81,69.81,0,0,1,32.68,18.19A57.89,57.89,0,0,1,1671.47,928q3.67,17.67,3.69,44.55V1116q0,13.17,2.63,18.18c1.76,3.35,4.75,5,9,5a17.94,17.94,0,0,0,9.23-2.63q4.47-2.64,9.75-6.33l5.27,9a78,78,0,0,1-25.56,14.5,98.88,98.88,0,0,1-32.42,5q-19.5,0-31.09-5.54t-16.61-15q-5-9.49-5-22.14-12.66,20-30.57,31.36T1526,1158.65Zm37.42-33.74a37.86,37.86,0,0,0,19.24-5q8.7-5,16.6-16.61V995.22a50.08,50.08,0,0,1-13.18,14.23q-8.43,6.33-17.91,12.92a178.66,178.66,0,0,0-18.19,14.5,58.92,58.92,0,0,0-14,19.5q-5.27,11.61-5.27,27.94,0,20.57,9,30.58T1563.42,1124.91Z"/><path class="cls-1" d="M1812.19,795.94V882.4h62.2v10.54h-62.2v213q0,15.81,5.8,22.4t17.39,6.59q9.49,0,19-7.11t16.86-24.52l9,4.75q-8.43,23.71-25.56,39T1808,1162.34q-17.4,0-30.57-4.48a55.23,55.23,0,0,1-37.43-42.18q-3.69-17.12-3.69-44.55V892.94H1692V882.4h44.27V812.81a198.08,198.08,0,0,0,40.85-3.95A127.07,127.07,0,0,0,1812.19,795.94Z"/><path class="cls-1" d="M2132.12,876.6v220.89q0,23.73,7.38,35.06t26.35,11.34V1155q-16.35-1.59-32.68-1.58-22.14,0-41.11,1.58a223,223,0,0,0-35.84,5.8v-47.45q-12.64,26.37-35,37.69t-49.81,11.34q-22.14,0-35.84-5.8t-21.61-14.76q-9-10-12.65-26.36t-3.69-42.18V939.86q0-23.72-7.11-35.05t-26.62-11.34V882.4q16.86,1.59,32.68,1.58,22.14,0,41.37-1.84a286,286,0,0,0,35.58-5.54v218.26a101.28,101.28,0,0,0,2.37,23.19q2.37,10,9.22,15.56t20,5.53a43.58,43.58,0,0,0,25.57-7.91q11.33-7.9,18.44-21.87a68,68,0,0,0,7.12-31.37V939.86q0-23.72-7.12-35.05t-26.61-11.34V882.4q16.86,1.59,32.68,1.58,22.13,0,41.37-1.84A286,286,0,0,0,2132.12,876.6Z"/><path class="cls-1" d="M2349.26,875q16.86,0,27.41,7.12a43.15,43.15,0,0,1,15.55,18.19,55.77,55.77,0,0,1,5,23.19q0,19.51-11.33,31.9t-29.78,12.39q-18.45,0-28.72-9.23t-10.28-24.51q0-14.76,6.59-24.52a62.3,62.3,0,0,1,16.6-16.61,23.69,23.69,0,0,0-14.76.53,43.19,43.19,0,0,0-19,8.17A61.92,61.92,0,0,0,2291.28,918a89.35,89.35,0,0,0-10,21.08,70.67,70.67,0,0,0-3.69,21.88v139.71q0,25.3,12.39,34.26t37.15,9V1155q-12.12-.53-35.31-1.32t-48.49-.79q-21.09,0-42.69.79T2168,1155v-11.07q18.45,0,26.09-7.91t7.64-30V939.86q0-23.72-7.11-35.05T2168,893.47V882.4q16.86,1.59,32.68,1.58,22.14,0,41.37-1.84a285.72,285.72,0,0,0,35.58-5.54v49a96.08,96.08,0,0,1,16.87-25.83,78.52,78.52,0,0,1,24.24-18.19A69.67,69.67,0,0,1,2349.26,875Z"/><path class="cls-1" d="M2529,875q46.38,0,72.73,27.41t26.36,89.63H2454.67l-1.05-10h108.05a256.94,256.94,0,0,0-3.17-47.71q-3.69-21.87-11.59-35.06t-21.08-13.18q-18.47,0-31.36,23.2t-15.55,77l1.58,3.16q-.52,6.33-.79,13.18t-.26,14.23q0,36.37,10.27,59.05t26.09,32.95q15.81,10.28,32.15,10.28a82.25,82.25,0,0,0,22.93-3.43q11.87-3.42,24-12.65t22.67-26.1l9.48,3.17a137.09,137.09,0,0,1-20,39,110,110,0,0,1-34.79,31.1q-21.09,12.12-50.6,12.13-35.85,0-63.25-15.29t-43-46.39q-15.55-31.11-15.55-79.08,0-49,16.6-81.72t45.86-48.76Q2491.57,875,2529,875Z"/><path class="cls-1" d="M477.15,1283.88q20.57,0,33.21,2.9A76.09,76.09,0,0,1,532,1295a67.42,67.42,0,0,1,15.55,9.49,49.73,49.73,0,0,1,11.86,14.23,38.11,38.11,0,0,1,4.74,19q0,15.82-12.12,25.31a44.9,44.9,0,0,1-28.46,9.49q-15.81,0-27.15-7.91t-11.33-24.78q0-13.17,9.49-24a40.87,40.87,0,0,1,24.24-13.44q-3.69-4.21-13.44-6.85a81.53,81.53,0,0,0-21.34-2.64q-27.42,0-46.65,17.14t-19.24,51.92a87.75,87.75,0,0,0,4.22,25.84q4.21,13.71,16.34,27.94,9-2.1,16.6-3.17a97.41,97.41,0,0,1,12.91-1q9.49,0,14.5,4a12.53,12.53,0,0,1,5,10.28,9.55,9.55,0,0,1-4.22,7.91,17.09,17.09,0,0,1-10.54,3.16,39.39,39.39,0,0,1-18.45-5q-9.48-5-15.28-8.7-24.78,12.64-40.33,32.42t-15.54,53q0,34.8,19,57.2t53.5,33.74q34.51,11.34,81.43,11.34a237.23,237.23,0,0,0,52.18-5.8,173.42,173.42,0,0,0,46.65-17.4q20.8-11.6,33.46-28.73t12.65-39.8a122.94,122.94,0,0,0-2.37-21.36q-2.37-12.9-11.33-25.83T639,1450.47l3.69-4.74q28.47,9,43.22,33.74t14.76,56.93A105.3,105.3,0,0,1,678,1602.57q-22.68,29.25-63.51,46.12t-95.67,16.87q-43.75,0-79.32-9t-61.14-26.09q-25.57-17.13-39.53-41.39t-14-54.83q0-29.51,12.39-50.34a116.74,116.74,0,0,1,30.3-34.27,164.42,164.42,0,0,1,35.85-20.82q17.91-7.38,28.46-10a164.88,164.88,0,0,1-29.78-16.08,77.24,77.24,0,0,1-21.61-21.88,53.83,53.83,0,0,1,.79-58.25,70.73,70.73,0,0,1,24-21.35,130.89,130.89,0,0,1,33.73-12.92A163.85,163.85,0,0,1,477.15,1283.88Zm207.14-6.33q37.43,0,60.61,19.51t23.2,54.83q0,26.88-12.92,45.34t-36.89,30q-24,11.61-57.19,18.46-7.38,2.64-18.45,6.06T620,1458.38q-11.6,3.16-22.4,6.33c-7.21,2.1-13.44,3.87-18.71,5.27q-41.11,9-63.25,20.29t-22.14,30.84a32.38,32.38,0,0,0,8.7,22.67,58.54,58.54,0,0,0,21.87,14.76,70.38,70.38,0,0,0,26.36,5.28,43.65,43.65,0,0,0,7.9-.79,52.2,52.2,0,0,0,7.91-2.11,25.73,25.73,0,0,0,5.27-2.38q-13.18-4.2-19.77-13.44a35.76,35.76,0,0,1-6.58-21.35q0-16.86,12.12-25.83t30-9q19,0,29.78,10t10.81,25.83q0,16.35-10,27.16T591,1567.77q-16.87,5-38,5a102.06,102.06,0,0,1-38.74-7.38,64.84,64.84,0,0,1-29-22.41q-10.8-15-10.8-37.69,0-27.94,14.23-46.66t40.85-31.1q26.61-12.39,63-19.24,11.07-2.64,24.51-6.07t27.67-7.11q14.24-3.69,26.36-7.91,37.93-9.49,58.76-21.09T750.7,1335a38.81,38.81,0,0,0-8.69-25,58.72,58.72,0,0,0-22.4-16.87,69.74,69.74,0,0,0-28.47-6.07,66.15,66.15,0,0,0-8.69.53,16.94,16.94,0,0,0-6.59,2.11q13.17,4.74,19.5,14.23t6.33,19q0,16.35-12.13,25t-30,8.7q-17.92,0-29.52-9.22t-11.59-25.57q0-14.23,8.17-24t22.93-15Q664.26,1277.57,684.29,1277.55Z"/><path class="cls-1" d="M1006.85,1278.08q31.09,0,48,6.59a187.67,187.67,0,0,1,29,14q6.33,3.69,10.28,5.54a18,18,0,0,0,7.64,1.84q5.27,0,7.64-5.8t4-17.39h12.13q-.54,10-1.32,24t-1,36.64q-.28,22.68-.27,59.57h-12.12a176.16,176.16,0,0,0-12.65-53.24q-10.54-25.83-29.78-42.44t-47.17-16.61q-25.3,0-41.64,14.24t-16.34,39.54q0,21.09,10.54,36.11t30.84,29.26q20.28,14.23,49.28,34.27a506.54,506.54,0,0,1,45.32,32.68,138.61,138.61,0,0,1,32.16,36.9q12.1,20.57,12.12,49,0,34.8-18.19,57.47t-47.7,34q-29.52,11.32-64.82,11.33-32.7,0-52.18-6.32a216,216,0,0,1-32.68-13.18q-11.61-7.38-17.92-7.38c-3.52,0-6.06,1.93-7.65,5.8s-2.89,9.67-4,17.39H886.15q1.05-12.64,1.32-29.52t.52-44q.27-27.15.27-68.8h12.12a263.35,263.35,0,0,0,11.86,65.11q9.75,30.33,30,48.77t54,18.45q18.44,0,32.94-6.59a55.74,55.74,0,0,0,23.45-19.77q9-13.17,9-32.69,0-22.14-10.28-38.48t-27.93-30.58a454.77,454.77,0,0,0-40.85-29q-24.78-16.32-46.38-32.68a135.74,135.74,0,0,1-34.52-37.43q-12.93-21.08-12.92-50.08,0-33.22,16.61-54.57t43.74-31.63A161.66,161.66,0,0,1,1006.85,1278.08Z"/><path class="cls-1" d="M1293.57,1378.25a149.14,149.14,0,0,1,37.69,4.48q17.12,4.49,28.2,11.33a64,64,0,0,1,21.34,20.83q7.64,12.39,7.64,28.73,0,18.45-11.59,30.31t-30,11.86q-18.46,0-29.52-10.54t-11.07-28.47q0-16.86,10.54-28.2a50.81,50.81,0,0,1,24.25-15q-4.23-5.27-12.65-9a46.91,46.91,0,0,0-19-3.69,45.87,45.87,0,0,0-28.72,9.49q-12.39,9.48-20.82,26.36t-12.91,39.54a255.61,255.61,0,0,0-4.48,49.55q0,40.61,10.27,63.79t26.36,32.69a65,65,0,0,0,33.47,9.49,85.34,85.34,0,0,0,21.87-3.17q11.86-3.15,24.25-12.65t22.92-26.88l9,3.16a142.54,142.54,0,0,1-19,39,104.77,104.77,0,0,1-34.26,31.9q-21.09,12.38-51.65,12.38-34.28,0-61.93-15t-44.28-46.39q-16.61-31.37-16.6-80.93,0-47.45,17.13-79.87t46.64-48.76Q1256.15,1378.26,1293.57,1378.25Z"/><path class="cls-1" d="M1506.5,1379.83v229.33q0,22.14,7.64,30t26.09,7.9v11.07q-10-.51-29.78-1.31t-40.32-.79q-20.55,0-41.64.79t-31.62,1.31v-11.07q18.45,0,26.09-7.9t7.64-30V1443.09q0-23.73-7.11-35.06t-26.62-11.33v-11.07q16.86,1.57,32.68,1.58,22.14,0,41.37-1.85A283.93,283.93,0,0,0,1506.5,1379.83Zm-41.11-130.22q22.14,0,35,10.81t12.91,29.79q0,19-12.91,29.78t-35,10.81q-22.14,0-35.05-10.81t-12.91-29.78q0-19,12.91-29.79T1465.39,1249.61Z"/><path class="cls-1" d="M1677.79,1378.25q46.38,0,72.74,27.41t26.35,89.62H1603.47l-1-10h108a256.91,256.91,0,0,0-3.16-47.71q-3.7-21.87-11.6-35.06t-21.08-13.18q-18.45,0-31.36,23.19t-15.55,77l1.58,3.17q-.52,6.31-.79,13.18t-.26,14.23q0,36.38,10.27,59t26.09,32.94q15.83,10.29,32.16,10.28a82.21,82.21,0,0,0,22.92-3.42q11.86-3.42,24-12.65t22.67-26.1l9.49,3.16a137.39,137.39,0,0,1-20,39,109.82,109.82,0,0,1-34.79,31.11q-21.09,12.12-50.6,12.12-35.85,0-63.25-15.28t-43-46.4q-15.56-31.1-15.55-79.08,0-49,16.6-81.71t45.86-48.76Q1640.37,1378.25,1677.79,1378.25Z"/><path class="cls-1" d="M1982.43,1378.25q22.14,0,36.11,5.53t21.87,15q8.43,10,12.39,25.83t3.95,42.7v141.82q0,22.14,7.64,30t26.09,7.9v11.07q-10-.51-30-1.31t-39.53-.79q-20,0-39.27.79t-29.25,1.31v-11.07q15.81,0,22.14-7.9t6.32-30v-164a88.83,88.83,0,0,0-2.63-22.93,28.65,28.65,0,0,0-9.49-15.29q-6.86-5.54-20.56-5.54a46.09,46.09,0,0,0-26.09,7.91,56.44,56.44,0,0,0-19,21.88,68.18,68.18,0,0,0-7.11,31.37v146.56q0,22.14,6.58,30t21.88,7.9v11.07q-9.49-.51-27.67-1.31t-37.69-.79q-20,0-41.11.79t-31.62,1.31v-11.07q18.44,0,26.09-7.9t7.64-30V1443.09q0-23.73-7.12-35.06t-26.61-11.33v-11.07q16.86,1.57,32.67,1.58,22.14,0,41.38-1.85a284.22,284.22,0,0,0,35.58-5.53v47.44q13.15-26.88,35.84-38T1982.43,1378.25Z"/><path class="cls-1" d="M2225.94,1378.25a149.06,149.06,0,0,1,37.68,4.48q17.13,4.49,28.2,11.33a63.89,63.89,0,0,1,21.35,20.83q7.64,12.39,7.64,28.73,0,18.45-11.59,30.31t-30,11.86q-18.45,0-29.51-10.54t-11.07-28.47q0-16.86,10.54-28.2a50.76,50.76,0,0,1,24.25-15q-4.23-5.27-12.65-9a46.91,46.91,0,0,0-19-3.69,45.87,45.87,0,0,0-28.72,9.49q-12.39,9.48-20.82,26.36t-12.92,39.54a255.61,255.61,0,0,0-4.48,49.55q0,40.61,10.28,63.79t26.35,32.69a65,65,0,0,0,33.47,9.49,85.42,85.42,0,0,0,21.88-3.17q11.85-3.15,24.24-12.65t22.93-26.88l9,3.16q-5.8,19.51-19,39a104.77,104.77,0,0,1-34.26,31.9q-21.09,12.38-51.66,12.38-34.26,0-61.93-15t-44.27-46.39q-16.6-31.37-16.6-80.93,0-47.45,17.13-79.87t46.64-48.76Q2188.52,1378.26,2225.94,1378.25Z"/><path class="cls-1" d="M2465.22,1378.25q46.38,0,72.74,27.41t26.35,89.62H2390.9l-1.05-10H2497.9a256.91,256.91,0,0,0-3.16-47.71q-3.7-21.87-11.6-35.06t-21.08-13.18q-18.46,0-31.36,23.19t-15.55,77l1.58,3.17q-.53,6.31-.79,13.18t-.26,14.23q0,36.38,10.27,59t26.09,32.94q15.83,10.29,32.16,10.28a82.21,82.21,0,0,0,22.92-3.42q11.87-3.42,24-12.65t22.67-26.1l9.49,3.16a137.39,137.39,0,0,1-20,39,109.82,109.82,0,0,1-34.79,31.11q-21.09,12.12-50.6,12.12-35.85,0-63.25-15.28t-43-46.4q-15.55-31.1-15.55-79.08,0-49,16.6-81.71t45.86-48.76Q2427.8,1378.25,2465.22,1378.25Z"/><path class="cls-1" d="M2632.3,1584.38q20.55,0,32.68,10.8T2677.1,1625q0,19-12.12,29.79t-32.68,10.8q-20.55,0-32.68-10.8T2587.5,1625q0-19,12.12-29.79T2632.3,1584.38Z"/><path class="cls-1" d="M995.37,1805l-5.92,3c-11.27,5.33-21.33,13-32,19.56,8.9,8.3,33.78,30.23,33.78,67.57,0,63.42-45.62,94.25-75.85,112,8.3,10.08,17.19,18.38,17.19,37.34,0,78.25-86.51,149.38-135.71,149.38-20.74,0-39.1-10.09-39.1-30.24,0-42.08,53.33-94.82,86.51-111.42l7.12-3.57c.58,0,1.77,0,1.77.59V2051l-3.55,2.36c-23.7,15.43-87.7,56.91-87.7,109.66,0,15.42,12.44,24.89,27.84,24.89,51,0,126.23-138.7,126.23-158.25,0-6.51-3-13-7.11-17.79-11.25,4.75-29.63,13.64-45.63,13.64-5.93,0-11.85-3.55-11.85-10.08,0-10.07,14.81-16.6,28.44-16.6,8.3,0,17.19,1.19,25.49,2.38,14.8-14.82,74.66-91.29,74.66-125.65,0-24.32-18.38-38.53-26.67-45.06-50.37,32.59-68.14,68.76-106.06,128l-42.08,66.39c-44.45,69.93-115,168.93-224.6,168.93-34.37,0-63.41-16.6-63.41-43.28,0-19.55,14.22-32,25.49-32,11.84,0,19,6.51,19,17.19,0,11.26-7.7,18.37-20.15,18.37-6.51,0-12.44-4.15-17.18-7.71a36.15,36.15,0,0,0-.6,7.71c0,24.31,30.81,36.16,51.56,36.16,107.26,0,161.78-127.44,240-231.76,51.56-68.76,90.08-100.76,133.32-131.59-18.36-10.66-37.92-22.53-81.17-22.53-128.6,0-285.63,99.59-285.63,197.4,0,13,12.45,28.45,38.51,28.45,23.12,0,64.6-30.83,101.33-68.17,20.16-20.15,51-55.72,62.82-83.57l4.74-11.28,1.19-1.17a2.65,2.65,0,0,1,1.78,1.77l-.59,4.74c-11.27,90.1-119.11,166-164.75,166-25.48,0-48.59-15.4-48.59-37.34,0-91.29,147-201.52,289.79-201.52,42.65,0,69.32,15.4,85.32,24.29,10.67-6.52,20.74-13.63,32-18.38l8.29-3.55h4.15C996.56,1802,996.56,1804.37,995.37,1805Zm-105.48,198c-14.81,0-33.78,2.38-33.78,12.45,0,4.74,6.53,5.34,11.27,5.34,13,0,26.66-9.49,33.18-15.41C897,2004.73,893.46,2002.94,889.89,2002.94Z"/><path class="cls-1" d="M1107.44,2143.11c-10.26,9.59-21.91,21.24-36.29,21.24-6.86,0-13.71-4.11-20.55-7.53-21.92,16.43-43.83,37-72.59,37-19.86,0-34.93-13.7-34.93-37,0-8.23,2.06-20.55,6.17-28.78l-18.51,16.44a5.09,5.09,0,0,1-2.73.69c-1.38,0-1.38-.69-1.38-1.37s1.38-2.05,2.07-2.74l18.48-17.13c30.83-28.08,83.56-77.4,132.18-77.4,17.82,0,26,15.75,26,26,0,29.46-38.36,66.44-51.37,80.14,4.79,2.75,11.65,6.17,17.82,6.17,13.69,0,24-9.59,33.55-18.49l15.07-14.39,2.73-.69,1.38,1.38ZM1078,2052c-42.46,0-110.26,98.64-110.26,119.89,0,10.94,5.48,16.42,19.18,16.42,32.18,0,113-77.4,113-115.07C1099.91,2060.91,1089.64,2052,1078,2052Z"/><path class="cls-1" d="M1284.82,2143.11c-10.25,9.59-21.9,21.24-36.29,21.24-6.85,0-13.69-4.11-20.54-7.53-21.91,16.43-43.84,37-72.6,37-19.86,0-34.93-13.7-34.93-37,0-8.23,2.06-20.55,6.17-28.78l-18.49,16.44a5.17,5.17,0,0,1-2.75.69c-1.35,0-1.35-.69-1.35-1.37s1.35-2.05,2-2.74l18.49-17.13c30.82-28.08,83.55-77.4,132.18-77.4,17.82,0,26,15.75,26,26,0,29.46-38.35,66.44-51.38,80.14,4.8,2.75,11.65,6.17,17.82,6.17,13.7,0,24-9.59,33.56-18.49l15.07-14.39,2.73-.69,1.37,1.38Zm-29.45-91.1c-42.45,0-110.25,98.64-110.25,119.89,0,10.94,5.48,16.42,19.17,16.42,32.2,0,113-77.4,113-115.07C1277.3,2060.91,1267,2052,1255.37,2052Z"/><path class="cls-1" d="M1385.53,2098.6c33.55-24,69.15-52.07,113-52.07,15.07,0,29.45,6.17,29.45,25.34,0,8.22-7.52,13-15,13a16.65,16.65,0,0,1-16.44-16.43c0-5.48,4.79-11.65,6.85-13.69a23.09,23.09,0,0,0-11.65-3.44c-29.44,0-65.75,24.66-85.61,39.73,15.07-5.48,20.55-6.17,29.45-6.17a30.69,30.69,0,0,1,30.82,30.84c0,7.52-4.1,17.13-8.9,24l-13.69,17.8c-6.86,8.24-8.9,13.72-8.9,19.2,0,7.53,10.25,10.26,14.38,10.26,13,0,48.62-10.26,87-46.57l15.07-14.39,3.42-.69.69,1.38-1.38,2-15.75,14.39c-37.67,34.25-72.6,50.7-91.08,50.7-15.07,0-34.25-11-34.25-28.08,0-10.28,2.75-17.83,8.22-26l15.75-21.91c3.42-4.8,6.86-9.59,6.86-15.07,0-6.86-8.9-11-15.76-11-26.72,0-54.1,21.91-68.48,41.11l-46.57,61H1278l132.18-169.88-116.42,113c-1.38,1.35-2.06,1.35-2.75,1.35l-.69-.67a3.58,3.58,0,0,1,1.38-2.75l9.58-10.27,80.81-80.83c17.82-17.82,37.68-34.94,55.48-56.87l119.17-149.32h24Z"/><path class="cls-1" d="M1744.4,2128.72l-15.75,14.39c-19.87,17.82-57.53,50.7-89,50.7-11,0-21.24-4.11-31.51-8.22-6.86,2.73-21.24,8.22-39,8.22-24.66,0-39.72-13.7-39.72-26.73,0-5.46,0-10.26,2.75-15h-2.75L1528,2150l20.55-18.5c32.2-29.45,56.17-52.07,102.73-100.7,7.54-11,11-35.61,23.28-35.61a5.39,5.39,0,0,1,5.48,5.48c0,8.21-13,19.18-20.55,30.13,0,17.82,26,46.59,26,72.62,0,42.47-50.67,69.17-70.53,78.76a44,44,0,0,0,24,6.86c28.08,0,65-27.39,87.66-48.63l15.07-14.39,3.42-.69.69,1.38Zm-91.08-92.47c-27.4,26.72-62.32,61.66-108.9,104.81,2.07,0,5.49-.68,8.9-.68,4.8,0,15.07,6.17,15.07,17.8,0,10.28-6.17,17.82-17.8,17.82a19.29,19.29,0,0,1-14.38-6.85c.69,7.54,5.48,17.13,23.28,17.13,31.51,0,98.63-60.29,98.63-117.14A111,111,0,0,0,1653.32,2036.25Z"/><path class="cls-1" d="M1819.09,2115.72c22.6-19.18,69.85-69.19,113-69.19,16.42,0,30.12,11.65,30.12,30.83,0,14.38-7.53,23.28-18.49,37L1913.59,2152c-6.15,8.21-14.38,19.18-14.38,24.66,0,7.53,5.48,10.26,7.55,10.26,10.27,0,40.41-15.74,73.28-46.57L1995.1,2126l3.42-.69.69,1.38-1.37,2-15.07,14.39c-37.67,35.63-70.53,50.7-80.12,50.7-11.65,0-25.34-11-25.34-28.08,0-17.83,14.38-35.63,25.34-48.64l25.32-30.83c4.8-6.17,12.34-15.07,12.34-22.6s-6.85-10.28-14.38-10.28c-29.45,0-96.56,54.12-130.12,95.9l-35.61,44.53h-34.94l110.26-145.91-95.19,86.31c-1.37,1.37-2.06,1.37-2.73,1.37l-.69-.69a3.59,3.59,0,0,1,1.36-2.73l9.59-10.27,81.51-74.68a482.22,482.22,0,0,0,54.77-60.29L1999.9,1837.6h24Z"/><path class="cls-1" d="M2149.9,2128.72l-15.07,14.39c-15.76,15.07-52,50.7-93.15,50.7-27.38,0-48.62-17.12-48.62-39.74a57.62,57.62,0,0,1,6.17-25.35l-11.65,11a2.48,2.48,0,0,1-2,.69,1.48,1.48,0,0,1-1.38-1.38,2.47,2.47,0,0,1,.69-2l8.21-8.24c52.73-52.74,100.67-82.19,124-82.19,11.63,0,20.53,4.79,20.53,16.44,0,30.15-45.88,55.48-83.54,65.75l-17.13,4.8c-6.17,8.23-15.07,25.35-15.07,34.25,0,11.65,10.28,20.55,26.72,20.55,24.66,0,61.63-26.7,83.56-47.94l15.05-14.39,3.43-.69.69,1.38Zm-30.83-78.09c-15.07,0-40.39,23.31-60.25,51.39L2041,2127.37c36.3-5.48,92.45-37,92.45-64.4C2133.45,2055.43,2125.93,2050.63,2119.07,2050.63Z"/><path class="cls-1" d="M2230.72,2100c-19.86,26-52.06,62.33-52.06,73.29,0,8.9,4.79,13.7,11,13.7,15.76,0,47.25-13.7,82.18-46.57l15.07-14.39,2.73-.69,1.37,1.38-1.37,2-15.74,14.39c-52.06,47.28-74,50.7-88.35,50.7-15.75,0-28.76-11-28.76-26.73,0-21.91,18.49-44.51,32.18-61.64l46.58-58.23-91.78,89.06c-1.36,1.37-2.05,1.37-2.73,1.37l-.69-.68a4.06,4.06,0,0,1,1.37-3.44l11-10.28,82.18-80.82c17.8-17.81,29.44-33.57,46.56-54.12L2404,1837.6h24Z"/><path class="cls-1" d="M2547.81,1954.05c-44.52,39-101.36,69.88-126.7,82.89l-92.45,139.75c4.79,1.36,9.58,2.73,14.38,2.73,17.8,0,50.68-8.21,89-46.57l6.84-6.86,3.44-.69.68,1.38-2.06,2.73-33.55,30.15c-30.14,26.72-64.38,34.25-85.6,34.25H2315c-47.94,68.5-81.49,111-130.12,169.19h-37.68c65.76-80.82,100-127.42,133.56-172.61-8.9-2.75-16.45-9.59-16.45-17.14,0-9.59,8.9-17.8,17.14-17.8,6.83,0,13,4.11,18.48,7.53,21.93-30.82,43.83-60.27,63-90.42-11.65,6.84-52.73,39.05-71.91,56.85l-8.21,7.55a2.54,2.54,0,0,1-2.06.68c-1.38,0-1.38-.68-1.38-1.37s1.38-2.06,2.07-2.75l9.58-8.9c26-24.66,65.74-54.81,81.5-65.75l41.78-57.54c59.57-82.22,153.4-180.85,194.5-180.85,13.69,0,24.66,7.53,24.66,20.54C2633.43,1875.27,2590.26,1916.38,2547.81,1954.05ZM2611.5,1826c-41.77,0-118.48,97.94-154.08,154.13l-30.14,47.26c47.94-21.92,100.67-58.92,145.18-102.76,29.45-29.45,55.48-61.64,55.48-82.88C2627.94,1832.12,2620.4,1826,2611.5,1826Z"/></svg>